<svg width="25" height="24" viewBox="0 0 25 24" fill="none" xmlns="http://www.w3.org/2000/svg">
<mask id="mask0_229_140" style="mask-type:alpha" maskUnits="userSpaceOnUse" x="0" y="0" width="25" height="24">
<rect x="0.833008" width="24" height="24" fill="#D9D9D9"/>
</mask>
<g mask="url(#mask0_229_140)">
<path d="M19.7102 9.32604L8.3861 20.6501C8.15283 20.8834 7.85594 21 7.49544 21C7.13494 21 6.83805 20.8834 6.60478 20.6501C6.37152 20.4168 6.25488 20.1199 6.25488 19.7594C6.25488 19.3989 6.37152 19.1021 6.60478 18.8688L17.9288 7.54473H8.25886C7.89836 7.54473 7.59617 7.4228 7.3523 7.17893C7.10843 6.93506 6.98649 6.63287 6.98649 6.27237C6.98649 5.91186 7.10843 5.60968 7.3523 5.36581C7.59617 5.12194 7.89836 5 8.25886 5H20.9825C21.343 5 21.6452 5.12194 21.8891 5.36581C22.1329 5.60968 22.2549 5.91186 22.2549 6.27237V18.996C22.2549 19.3565 22.1329 19.6587 21.8891 19.9026C21.6452 20.1465 21.343 20.2684 20.9825 20.2684C20.622 20.2684 20.3198 20.1465 20.076 19.9026C19.8321 19.6587 19.7102 19.3565 19.7102 18.996V9.32604Z" fill="#6438C3"/>
</g>
</svg>
