<svg width="70" height="19" viewBox="0 0 70 19" fill="none" xmlns="http://www.w3.org/2000/svg">
<path fill-rule="evenodd" clip-rule="evenodd" d="M53.7101 0.570312C52.9982 0.570312 52.3944 1.14675 52.3944 1.85611V17.1461C52.3944 17.8563 52.7903 18.4319 53.5022 18.4319H68.386C69.0987 18.4319 69.8592 17.8563 69.8592 17.1461V1.85611C69.8592 1.14675 69.3066 0.570312 68.5939 0.570312H53.7101ZM56.1369 2.80301C56.9985 2.80301 57.6962 3.51663 57.6962 4.3978C57.6962 5.27898 56.9985 5.99259 56.1369 5.99259C55.2753 5.99259 54.5775 5.27898 54.5775 4.3978C54.5775 3.51663 55.2753 2.80301 56.1369 2.80301ZM10.3973 2.86613C9.5715 2.86613 8.89809 3.55234 8.89809 4.39778C8.89809 5.24323 9.5715 5.92944 10.3973 5.92944C11.224 5.92944 11.8933 5.24323 11.8933 4.39778C11.8933 3.55234 11.224 2.86613 10.3973 2.86613ZM0 3.12197V15.8803H7.48492V13.3286H2.49497V3.12197H0ZM23.2864 3.12197V15.8803H25.7814V11.6275L28.8579 15.8803H31.8028L28.2764 11.2305L31.603 7.37474H28.6922L25.7814 10.777V3.12197H23.2864ZM47.4045 3.12197V8.3881H47.3801C46.872 7.76039 46.0319 7.26842 44.6805 7.26842C42.4974 7.26842 40.7333 9.01777 40.7333 11.6375C40.7333 14.3873 42.5234 15.9866 44.6025 15.9866C46.1278 15.9866 47.0277 15.481 47.5458 14.8669H47.5702V15.8803H49.8994V3.12197H47.4045ZM18.4102 7.26842C17.1011 7.26842 16.0414 7.93985 15.6829 8.60073H15.657V7.37474H13.3065V15.8803H15.8015V11.7953C15.8015 10.5169 16.3991 9.50112 17.6532 9.50112C18.6861 9.50112 19.1281 10.3722 19.1281 11.6242V15.8803H21.6231V11.159C21.6231 8.89827 20.9226 7.26842 18.4102 7.26842ZM35.9513 7.26842C33.1095 7.26842 31.603 8.96896 31.603 11.4381C31.603 14.2177 33.266 15.9866 35.8782 15.9866C37.8359 15.9866 39.0481 15.2897 39.6369 14.5097L38.0841 13.2223C37.7481 13.6892 37.0033 14.2855 35.9188 14.2855C34.6763 14.2855 34.1351 13.389 33.9713 12.6558L33.9583 12.3933H39.8741C39.8741 12.3933 39.9196 12.1069 39.9196 11.8169C39.9196 8.91735 38.4055 7.26842 35.9513 7.26842ZM64.1513 7.26842C66.6638 7.26842 67.3643 8.63204 67.3643 11.159V15.8803H64.8693V11.6242C64.8693 10.4929 64.4273 9.50112 63.3944 9.50112C62.1402 9.50112 61.5426 10.3698 61.5426 11.7953V15.8803H59.0477V7.37474H61.3981V8.60073H61.424C61.7825 7.93985 62.8423 7.26842 64.1513 7.26842ZM9.14823 7.37474V15.8803H11.6432V7.37474H9.14823ZM54.8894 7.37474H57.3844V15.8803H54.8894V7.37474ZM35.8766 8.96953C36.8912 8.96953 37.5354 9.87962 37.5188 10.777H33.9583C34.0256 9.93405 34.669 8.96953 35.8766 8.96953ZM45.3075 9.18216C46.7354 9.18216 47.5702 10.1549 47.5702 11.6059C47.5702 13.0178 46.7354 14.0728 45.3075 14.0728C43.8812 14.0728 43.0805 12.9898 43.0805 11.6059C43.0805 10.2229 43.8812 9.18216 45.3075 9.18216Z" fill="white"/>
</svg>
