<svg width="13" height="13" viewBox="0 0 13 13" fill="none" xmlns="http://www.w3.org/2000/svg">
<path d="M2.93516 4.27344H0.21875V12.9359H2.93516V4.27344Z" fill="white"/>
<path d="M10.2844 4.09064C10.1842 4.07812 10.0778 4.07186 9.97144 4.0656C8.4505 4.00301 7.59302 4.90431 7.29259 5.29237C7.21122 5.39877 7.17366 5.46136 7.17366 5.46136V4.30344H4.57617V12.9659H7.17366H7.29259C7.29259 12.0834 7.29259 11.2071 7.29259 10.3246C7.29259 9.84893 7.29259 9.37324 7.29259 8.89756C7.29259 8.30921 7.24877 7.68331 7.54295 7.14504C7.79331 6.69439 8.24395 6.46906 8.75093 6.46906C10.2531 6.46906 10.2844 7.82727 10.2844 7.95245C10.2844 7.95871 10.2844 7.96497 10.2844 7.96497V13.0035H13.0008V7.35158C13.0008 5.41755 12.0181 4.27841 10.2844 4.09064Z" fill="white"/>
<path d="M1.57727 3.15454C2.44837 3.15454 3.15454 2.44837 3.15454 1.57727C3.15454 0.706168 2.44837 0 1.57727 0C0.706165 0 0 0.706168 0 1.57727C0 2.44837 0.706165 3.15454 1.57727 3.15454Z" fill="white"/>
</svg>
